<?xml version="1.0" encoding="UTF-8" standalone="no"?>
<!-- Generator: Adobe Illustrator 16.0.0, SVG Export Plug-In . SVG Version: 6.00 Build 0)  -->

<svg
   xmlns:dc="http://purl.org/dc/elements/1.1/"
   xmlns:cc="http://creativecommons.org/ns#"
   xmlns:rdf="http://www.w3.org/1999/02/22-rdf-syntax-ns#"
   xmlns:svg="http://www.w3.org/2000/svg"
   xmlns="http://www.w3.org/2000/svg"
   xmlns:sodipodi="http://sodipodi.sourceforge.net/DTD/sodipodi-0.dtd"
   xmlns:inkscape="http://www.inkscape.org/namespaces/inkscape"
   version="1.1"
   id="Capa_1"
   x="0px"
   y="0px"
   width="284.92899"
   height="251.65248"
   viewBox="0 0 284.929 251.65249"
   xml:space="preserve"
   inkscape:version="0.91 r13725"
   sodipodi:docname="arrow-down.svg"><metadata
     id="metadata4179"><rdf:RDF><cc:Work
         rdf:about=""><dc:format>image/svg+xml</dc:format><dc:type
           rdf:resource="http://purl.org/dc/dcmitype/StillImage" /><dc:title></dc:title></cc:Work></rdf:RDF></metadata><defs
     id="defs4177" /><sodipodi:namedview
     pagecolor="#ffffff"
     bordercolor="#666666"
     borderopacity="1"
     objecttolerance="10"
     gridtolerance="10"
     guidetolerance="10"
     inkscape:pageopacity="0"
     inkscape:pageshadow="2"
     inkscape:window-width="1600"
     inkscape:window-height="837"
     id="namedview4175"
     showgrid="false"
     fit-margin-top="0"
     fit-margin-left="0"
     fit-margin-right="0"
     fit-margin-bottom="0"
     inkscape:zoom="0.82827656"
     inkscape:cx="-38.030778"
     inkscape:cy="137.89851"
     inkscape:window-x="-8"
     inkscape:window-y="-8"
     inkscape:window-maximized="1"
     inkscape:current-layer="Capa_1" /><g
     id="g4181"
     transform="translate(0,-28.710524)"><g
       id="g4137"><g
         id="g4139"><path
           inkscape:connector-curvature="0"
           id="path4141"
           d="m 137.40128,144.55908 c 1.46679,1.34921 3.15646,2.0224 5.06438,2.0224 1.90791,0 3.5945,-0.67248 5.06052,-2.0224 L 250.13562,50.179461 c 1.4668,-1.349922 2.19557,-2.903432 2.19557,-4.658401 0,-1.75497 -0.7334,-3.309189 -2.19557,-4.658401 L 239.12771,30.734343 c -1.4668,-1.349922 -3.15647,-2.023819 -5.0667,-2.023819 -1.9056,0 -3.5945,0.673897 -5.06129,2.023819 L 142.46566,110.32866 55.935452,30.734343 c -1.467568,-1.349922 -3.156466,-2.023819 -5.064381,-2.023819 -1.908687,0 -3.597585,0.673897 -5.064382,2.023819 L 34.800316,40.862659 c -1.469881,1.349212 -2.202508,2.900594 -2.202508,4.658401 0,1.757806 0.73494,3.309188 2.202508,4.658401 L 137.40128,144.55908 Z" /><path
           id="path4143"
           d="m 267.808,117.053 c -1.902,-1.903 -4.093,-2.853 -6.57,-2.853 -2.471,0 -4.661,0.95 -6.563,2.853 L 142.466,229.257 30.262,117.05 c -1.903,-1.903 -4.093,-2.853 -6.567,-2.853 -2.475,0 -4.665,0.95 -6.567,2.853 L 2.856,131.327 C 0.95,133.23 0,135.42 0,137.893 c 0,2.474 0.953,4.665 2.856,6.57 l 133.043,133.046 c 1.902,1.903 4.093,2.854 6.567,2.854 2.474,0 4.661,-0.951 6.562,-2.854 L 282.082,144.463 c 1.902,-1.903 2.847,-4.093 2.847,-6.565 0,-2.474 -0.951,-4.661 -2.847,-6.567 l -14.274,-14.278 z"
           inkscape:connector-curvature="0" /></g></g></g><g
     id="g4145"
     transform="translate(0,-28.710524)" /><g
     id="g4147"
     transform="translate(0,-28.710524)" /><g
     id="g4149"
     transform="translate(0,-28.710524)" /><g
     id="g4151"
     transform="translate(0,-28.710524)" /><g
     id="g4153"
     transform="translate(0,-28.710524)" /><g
     id="g4155"
     transform="translate(0,-28.710524)" /><g
     id="g4157"
     transform="translate(0,-28.710524)" /><g
     id="g4159"
     transform="translate(0,-28.710524)" /><g
     id="g4161"
     transform="translate(0,-28.710524)" /><g
     id="g4163"
     transform="translate(0,-28.710524)" /><g
     id="g4165"
     transform="translate(0,-28.710524)" /><g
     id="g4167"
     transform="translate(0,-28.710524)" /><g
     id="g4169"
     transform="translate(0,-28.710524)" /><g
     id="g4171"
     transform="translate(0,-28.710524)" /><g
     id="g4173"
     transform="translate(0,-28.710524)" /></svg>