<?xml version="1.0" encoding="UTF-8" standalone="no"?>
<!-- Generator: Adobe Illustrator 19.1.0, SVG Export Plug-In . SVG Version: 6.00 Build 0)  -->

<svg
   xmlns:dc="http://purl.org/dc/elements/1.1/"
   xmlns:cc="http://creativecommons.org/ns#"
   xmlns:rdf="http://www.w3.org/1999/02/22-rdf-syntax-ns#"
   xmlns:svg="http://www.w3.org/2000/svg"
   xmlns="http://www.w3.org/2000/svg"
   xmlns:sodipodi="http://sodipodi.sourceforge.net/DTD/sodipodi-0.dtd"
   xmlns:inkscape="http://www.inkscape.org/namespaces/inkscape"
   version="1.1"
   x="0px"
   y="0px"
   viewBox="0 0 277.16806 405.457"
   xml:space="preserve"
   id="svg4243"
   inkscape:version="0.91 r13725"
   sodipodi:docname="arrow-prev.svg"
   width="277.16806"
   height="405.457"><metadata
     id="metadata4252"><rdf:RDF><cc:Work
         rdf:about=""><dc:format>image/svg+xml</dc:format><dc:type
           rdf:resource="http://purl.org/dc/dcmitype/StillImage" /><dc:title></dc:title></cc:Work></rdf:RDF></metadata><defs
     id="defs4250" /><sodipodi:namedview
     pagecolor="#ffffff"
     bordercolor="#666666"
     borderopacity="1"
     objecttolerance="10"
     gridtolerance="10"
     guidetolerance="10"
     inkscape:pageopacity="0"
     inkscape:pageshadow="2"
     inkscape:window-width="1631"
     inkscape:window-height="949"
     id="namedview4248"
     showgrid="false"
     fit-margin-top="0"
     fit-margin-left="0"
     fit-margin-right="0"
     fit-margin-bottom="0"
     inkscape:zoom="1.8251011"
     inkscape:cx="59.135886"
     inkscape:cy="202.7285"
     inkscape:window-x="20"
     inkscape:window-y="42"
     inkscape:window-maximized="0"
     inkscape:current-layer="svg4243" /><g
     id="g4245"
     transform="matrix(-1,0,0,-1,341.313,405.457)"
     style="fill:#e6afa1;fill-opacity:1"><path
       id="arrow-right-svg"
       d="m 64.147,331.322 c 0.078,4.985 2.163,9.911 5.688,13.438 l 55,55 c 3.599,3.601 8.659,5.697 13.75,5.697 5.091,0 10.151,-2.096 13.75,-5.697 L 335.616,216.478 c 3.601,-3.599 5.697,-8.659 5.697,-13.75 0,-5.091 -2.096,-10.151 -5.697,-13.75 L 152.335,5.697 C 148.736,2.096 143.676,0 138.585,0 c -5.091,0 -10.151,2.096 -13.75,5.697 l -55,55 c -3.591,3.598 -5.681,8.651 -5.681,13.734 0,5.083 2.09,10.136 5.681,13.734 L 184.397,202.728 69.835,317.291 c -3.664,3.667 -5.765,8.848 -5.688,14.031 l 0,0 z"
       inkscape:connector-curvature="0"
       style="fill:#e6afa1;fill-opacity:1" /></g></svg>