<svg xmlns="http://www.w3.org/2000/svg" width="284.929" height="251.652" viewBox="0 0 284.929 251.65249"><path d="M137.401 115.849c1.467 1.349 3.157 2.022 5.065 2.022 1.908 0 3.594-.673 5.06-2.022l102.61-94.38c1.466-1.35 2.195-2.903 2.195-4.658 0-1.755-.733-3.31-2.195-4.659L239.128 2.024C237.66.674 235.97 0 234.06 0c-1.906 0-3.594.674-5.061 2.024l-86.534 79.594-86.53-79.594C54.467.674 52.778 0 50.87 0c-1.909 0-3.598.674-5.064 2.024L34.8 12.152c-1.47 1.35-2.202 2.9-2.202 4.659 0 1.757.735 3.309 2.202 4.658l102.601 94.38z"/><path d="M267.808 88.342c-1.902-1.903-4.093-2.853-6.57-2.853-2.471 0-4.661.95-6.563 2.853L142.466 200.546 30.262 88.34c-1.903-1.903-4.093-2.853-6.567-2.853-2.475 0-4.665.95-6.567 2.853L2.856 102.616C.95 104.52 0 106.71 0 109.182c0 2.474.953 4.665 2.856 6.57l133.043 133.046c1.902 1.903 4.093 2.854 6.567 2.854s4.661-.95 6.562-2.854l133.054-133.046c1.902-1.903 2.847-4.093 2.847-6.565 0-2.474-.951-4.66-2.847-6.567l-14.274-14.278z"/></svg>