<svg xmlns="http://www.w3.org/2000/svg" viewBox="0 0 277.16806 405.457" width="277.168" height="405.457"><path d="M.002 331.322c.078 4.985 2.163 9.911 5.688 13.438l55 55c3.599 3.601 8.659 5.697 13.75 5.697 5.091 0 10.151-2.096 13.75-5.697l183.281-183.282c3.601-3.599 5.697-8.659 5.697-13.75 0-5.091-2.096-10.151-5.697-13.75L88.19 5.697C84.591 2.096 79.531 0 74.44 0c-5.091 0-10.151 2.096-13.75 5.697l-55 55C2.099 64.295.009 69.348.009 74.431s2.09 10.136 5.681 13.734l114.562 114.563L5.69 317.291c-3.664 3.667-5.765 8.848-5.688 14.031z" fill="#e6afa1"/></svg>