<svg xmlns="http://www.w3.org/2000/svg" viewBox="0 0 277.16806 405.457" width="277.168" height="405.457"><path d="M277.166 74.135c-.078-4.985-2.163-9.911-5.688-13.438l-55-55C212.879 2.096 207.819 0 202.728 0c-5.091 0-10.151 2.096-13.75 5.697L5.697 188.979C2.096 192.578 0 197.638 0 202.729c0 5.091 2.096 10.151 5.697 13.75L188.978 399.76c3.599 3.601 8.659 5.697 13.75 5.697 5.091 0 10.151-2.096 13.75-5.697l55-55c3.591-3.598 5.681-8.651 5.681-13.734s-2.09-10.136-5.681-13.734L156.916 202.729 271.478 88.166c3.664-3.667 5.765-8.848 5.688-14.031z" fill="#e6afa1"/></svg>