<svg xmlns="http://www.w3.org/2000/svg" viewBox="0 0 304.378 304.378" width="512" height="512"><path d="M80.796 53.289c-6.625-8.164-19.51-8.523-27.462.484-20.299 23.008-51.595 70.583-36.91 133.921 0 0-4.15 1.207-9.268 2.698-5.118 1.485-2.48 9.682 5.896 18.297l35.854 36.904c8.376 8.621 16.595 5.967 18.351-5.918l7.152-48.25c1.757-11.89-2.312-19.923-9.094-17.949l-12.281 3.573c-8.893-42.142 10.019-75.086 24.721-93.291 7.544-9.354 9.665-22.305 3.041-30.469zm40.928 247.472c9.469 1.942 21.599 3.617 35.256 3.617 29.17 0 65.318-7.696 97.484-36.692 0 0 4.107 3.949 9.159 8.822 5.064 4.868 11.846-.549 15.142-12.102l14.142-49.468c3.301-11.553-3.089-17.356-14.272-12.961l-45.411 17.835c-11.183 4.395-17.122 10.965-13.266 14.675l6.984 6.723c-31.721 27.114-68.723 27.054-91.398 23.442-11.868-1.893-24.149 2.72-27.93 12.532-3.768 9.806 2.34 21.162 14.11 23.577zM299.277 127.63c-6.853-29.268-26.815-80.781-84.137-106.084l4.242-12.216c2.339-6.744-5.385-10.72-17.264-8.882L151.291 8.33c-11.879 1.838-14.468 10.073-5.798 18.389l35.213 33.76c8.67 8.316 17.09 11.068 18.797 6.146l3.089-8.915c36.833 17.639 51.959 50.67 58.1 72.481 3.258 11.569 12.586 20.794 23.083 20.114 10.487-.674 18.244-10.981 15.502-22.675z" fill="#FFF"/></svg>